<?xml version="1.0" encoding="utf-8"?>
<!-- Generator: Adobe Illustrator 28.2.0, SVG Export Plug-In . SVG Version: 6.00 Build 0)  -->
<svg version="1.1" id="Layer_1" xmlns="http://www.w3.org/2000/svg" xmlns:xlink="http://www.w3.org/1999/xlink" x="0px" y="0px"
	 viewBox="0 0 1024 820" style="enable-background:new 0 0 1024 820;" xml:space="preserve">
<style type="text/css">
	.st0{fill:#1A1A1A;}
	.st1{fill:#1A1A1A;}
	.st2{fill:#1A1A1A;}
	.st3{fill:#1A1A1A;}
	.st4{fill:#1A1A1A;}
	.st5{fill:#1A1A1A;}
	.st6{fill:#1A1A1A;}
	.st7{fill:#1A1A1A;}
	.st8{fill:#1A1A1A;}
	.st9{fill:#1A1A1A;}
	.st10{fill:#1A1A1A;}
	.st11{fill:#1A1A1A;}
	.st12{fill:#1A1A1A;}
	.st13{font-family:'Georgia-Bold';}
	.st14{font-size:68px;}
	.st15{letter-spacing:8;}
	.st16{fill:#A0522D;}
	.st17{font-family:'Georgia-Italic';}
	.st18{font-size:20px;}
	.st19{letter-spacing:6;}
	.st20{opacity:0.6;fill:none;stroke:#C68642;stroke-width:1.5;enable-background:new    ;}
	.st21{opacity:0.8;fill:#C68642;enable-background:new    ;}
	.st22{font-size:28px;}
	.st23{letter-spacing:1;}
	.st24{font-size:18px;}
</style>
<g id="left_wing">
	<g>
		<path class="st0" d="M427,357c1.5,1,3.6,2.3,5,3c4.5,2.3,10.1,3.1,14,6c1.5,0.6,6.7,1,7,3c2.2-0.8,6.7-0.9,9-1c1.6,0,7.5,2.3,7,6
			c8-9.8,23.5,8.3,27-7c-20.9-10.8-57.9-8-69.1-31.9c-11.2-23.9-5.2-56.4-34.7-65.3c-29.5-8.9-61.7-4.7-92-8
			c-30.3-3.3-56.8-6.1-85.2-14.8c20.2,45.9,78.8,38.3,121,42c-6.2-6.2,8.9,0.8,15.8,0.2c6.9-0.6,19.1,1.6,26.2,2.8
			c7.2,1.2,13,5.8,17.3,11.7c4.2,5.9,3.6,13.9,6.4,20.6c2.8,6.6,5.7,13.7,9.5,19.5C415.1,349.5,421.3,353.5,427,357z"/>
	</g>
	<g>
		<path class="st0" d="M345,305c-1.6-1.8-3.1-2.5-4-5c-1.9-0.6-2.1-2.6-3-4c-7.2-7.6-21.9-3.4-33-4s-22.5-0.4-33.3-1.7
			c-10.8-1.3-21.3-2.4-31.7-5.3c22.8,35,72.7,24.3,108,23C347.6,306.5,345.9,306,345,305z"/>
	</g>
	<g>
		<path class="st0" d="M340,296c0.6,1.1,1,1.7,1,3c1.5,0.6,3.5,2.5,4,4c7.3,4.6,18.4,4,27,4c1,0,2,0,3,0c1.7,0,3.3,0,5,0
			c2.8,0,8.5-1.1,11,0c0-9.4-12.5-11.6-22-11s-22.4,0-31-4C337.7,293.8,339.3,294.6,340,296z"/>
	</g>
	<g>
		<path class="st0" d="M345,312c1.7,0.5,4,5.5,5,7c1.9-0.3,2.8,1.5,4,2c2.3,0.9,4.5,0.6,7,1c3.3,0.5,6.4,1,10,1c1.7,0,3.3,0,5,0
			c4.6,0,8.7-0.2,13-1c1.1-0.2,5.2-0.3,6-1c2-5.4-0.9-8.1-4-12c-2.5,1.1-8.2,0-11,0c-1.3,0-2.7,0-4,0c-0.5,0-1.5,0-2,0c0,0-1,2-1,2
			c1.3,0.1,2.7-0.1,4,0c-3,1.5-7.4,1.4-11,2c-7.7,1.4-13.9-3-21-4C344.9,310,345.1,311,345,312z"/>
	</g>
	<g>
		<path class="st0" d="M367,311c1.1-0.6,4.7-0.1,6,0c0,0,1-2,1-2c0,0-0.6-0.2-1,0C370.4,309.9,367.5,310,367,311z"/>
	</g>
	<g>
		<path class="st0" d="M353,326c0.1,0.5,0-2.2,0-2c-0.8-1.5-1.7-2.7-3-4c-2-0.8-6.1-4.7-6-7c-25.8,1.6-51.9,5.7-78,3
			c3.6,5.2,9.4,9.7,16,12c6.6,2.4,15.6,5.2,23,5s20.2,1.4,26.8-1.2C338.3,329.1,348.2,330.9,353,326z"/>
	</g>
	<g>
		<path class="st0" d="M394,324c-1.6,0-3.4-0.2-5,0c-2.9,0.3-5.8,0.9-9,1c-3,0.1-5.3,0.5-8,1c-4.7,0.8-9.2,0.4-14,1
			c-2.2,0.8-1.7-1.4-1,2c0.5,0.1,3,3.3,3,4c0.8,0.1,3.9,2.3,4,3c7.4-0.2,15,1,23,1c1.6,0,3.4,0.2,5,0c2.2-0.2,5.9-1.1,8-2
			c0.1,0,2-1,2-1C399.4,329.1,399.6,323.9,394,324z"/>
	</g>
	<g>
		<path class="st0" d="M369,344c-1.2-2.2-7.8-4.2-6-7c-1.2,0-3.3-2.4-4-3c-1.2-1-3.4-1.9-3-4c-0.5,0.1-1.6-0.2-2,0
			c-17.7,7.2-37.9,10.9-57,13c9.5,10.2,23.3,8.5,35.8,9.8C345.3,354.1,357.3,342.8,369,344z"/>
	</g>
	<g>
		<path class="st0" d="M392,339c-2,0.5-3.9,0.6-6,1c-4.6,0.9-13.6,5.4-16,5c0.1,0.9-0.9,1.2-1,2c8.8,1.9,18.2,4.5,28,3
			c2.2-0.4,5.4,0.4,7,0c0.4-0.5,3.2-2.2,4-2c0-4.1-1.3-6.2-4-10c-0.6-0.9-0.9-1.5-2-2C400.2,335.6,394.3,338.4,392,339z"/>
	</g>
	<g>
		<path class="st0" d="M382,359c1-0.1,1.6-1.2,2-2c-5-1.5-9-2.5-2-4c-3.9,0.1-11.2-0.9-13-5c-13.9,4.7-28.1,10.1-42,14
			C341.1,370.1,369.2,371.8,382,359z"/>
	</g>
	<g>
		<path class="st0" d="M403,352c-3.2,1.6-6.1,4.7-10,5c-1.5,2.2-4.6,3.1-7,4c0,0.4-0.7,1.1-1,1c7.5,5.9,24.7,3,33-5
			c-2.9-3.1-4.7-7.4-9-8C408.2,351,404.6,351.2,403,352z"/>
	</g>
	<g>
		<path class="st1" d="M386,360c1.5-1.6,3.8-2.5,6-3c2.9-1.5,6.9-3.5,5-5C395.5,354.3,381.8,358.7,386,360z"/>
	</g>
	<g>
		<path class="st0" d="M430,362c-1-0.6-5.4-2.2-5-4c-8.4,1.8-15.3,8.5-23,12c10.1,5.4,28.1,7,35-4C434.4,365.1,432.1,363.3,430,362z
			"/>
	</g>
	<g>
		<path class="st0" d="M400,369c-8.8,0-17.9-8-25.8-1.8c-7.9,6.3-16.8,4.6-24.2,9.8C365.8,384.1,388.8,382.2,400,369z"/>
	</g>
	<g>
		<path class="st0" d="M423,380c3.2-1.7,9.4,2.3,14,1c4.6-1.3,9.2-0.7,13-5c0.7-0.8,2.8-3.3,3-4c-0.2-0.3-0.7-0.8-1-1
			c-1.9-1.4-4.2-2.4-6-4c-4.7,1.5-8.6,3.1-12.2,6.8C430.1,377.4,423.6,377.1,423,380z"/>
	</g>
	<g>
		<path class="st0" d="M454,373c0.8,2.4-1.2,3.3-1,3c-1.6,2.2-4.4,8.8-7,10c6.8-3.3,14-7,22-7c0.8-0.9-1.2-2.4-1-3
			c-0.3-1.3-2.2-3.8-3-5C460.6,368.9,457.6,373.1,454,373z"/>
	</g>
	<g>
		<path class="st0" d="M419,378c-7.4,1.1-14.6-6.1-20.8-1.8c-6.1,4.3-13.2,8.2-20.2,10.8c4.6,3.9,17,2.2,23.3,0.3
			C407.6,385.5,417.2,384.7,419,378z"/>
	</g>
	<g>
		<path class="st0" d="M435,388c2.1-2,5.5-2.4,7-5c-3,0.4-20,3.7-20-1c-6.2,4.9-13.8,7.6-20,12C412.5,395.1,425.2,393.6,435,388z"/>
	</g>
	<g>
		<path class="st1" d="M435,390c-1.4-0.2-2.6,0.7-3,2c5.3,1.5,8.8-6.5,13-7C443.4,383.5,437.2,388.6,435,390z"/>
	</g>
</g>
<g id="right_wing">
	<g>
		<path class="st0" d="M546,376c-1-2.4,2.2-5.2,4-6c3.9-1.8,7,0.5,11,0c14.2-1.7,32-9.8,44-19c1.2-0.9,3.1-2,4-3
			c1.4-1.6,3.8-5.2,5-7c1.9-2.8,3.5-6.8,5-10c5.4-11.5,6.2-28.1,18-35c5.8-3.6,13.9-6,21-6s19.2-0.4,25.3-1.7
			c6.1-1.3,18.9-6.2,12.7-0.3c40.5-1.4,95.2,2.3,114-41c-10.1,1.5-18.8,5.6-29,7c-10.2,1.4-18.6,3.8-29,5s-22.5,1.6-33,3
			s-22.3-0.1-32.8,1.2c-10.5,1.3-23.9,1.1-34,2c-10.1,0.9-19.8,3.5-28,8c-8.2,4.5-14.2,10.3-16.9,19.1s-4.6,19.9-7,29
			c-2.4,9.1-4.4,17.4-11.6,24.4S573,354.2,563,356c-10,1.8-17.8,3.9-27.9,8.1C524.9,368.2,539.3,376.2,546,376z"/>
	</g>
	<g>
		<path class="st0" d="M689,293c0.8,2.9-4.5,8.9-7,10c0.4,2.6-2.8,3.5-4,5c35.9,2.8,83.9,10.3,107-23c-14.6,5.2-30.1,3.5-45.3,6.7
			C724.5,294.8,703,287,689,293z"/>
	</g>
	<g>
		<path class="st0" d="M639,298c-3.3,1.2-7.5,5.9-6,9c1.4-1.4,10.8,0,13,0c1.3,0,2.7,0,4,0c5.7,0,13.4,0.3,18.9-0.1
			c5.5-0.4,7.9-4.2,13.1-4.9c2-2.7,3.1-6.8,5-9c-7.5,0.3-15.9,4.1-24,3S646.1,295.4,639,298z"/>
	</g>
	<g>
		<path class="st0" d="M628,321c2.2-1.1,8.6,0.6,10,2c3.9,0.6,8.7,0,12,0c8.4,0.5,16.3-0.9,24-3c-1.1,1.9-2.5,3.7-4,5
			c26.6,11.1,67.4,14.6,88-9c-7.7-0.8-15.3,2.2-23,1s-14.1,0.2-22-1c-7.9-1.2-14.5-0.5-22.4-2.7c-7.8-2.1-11.4,3.9-16.7,5.7
			c2.2-2.9,4.8-5.5,6-9c-10.4,1.6-21.9,5.3-32,1c3.5-0.5,8.2,1.2,11-1c-3.5,0.6-6.7-0.8-10-1c-1.3-0.1-2.7,0-4,0
			c-2.8,0-8.5,1.1-11,0C632.5,313,627.8,314.9,628,321z"/>
	</g>
	<g>
		<path class="st0" d="M621,333c1.2,1.6-0.1,1,2,2c2.1,1,4.3,0.9,6,2c1.8-0.4,4.1,0,6,0c2,0,4,0,6,0c8.4,0,14-0.5,22-2
			c0.5-1.3,4.8-7,6-7c-2.6-2-5.7-0.1-9.9-0.1c-4.2,0-6.6-2.4-10.1-2.9c-3.2-0.5-6.8,0.1-10,0c-3-0.1-9.1,0.5-11-2
			C626,324.4,620.9,330,621,333z"/>
	</g>
	<g>
		<path class="st0" d="M664,335c-2.5,3.8-5.6,6.3-7,9c21.1,8.4,52.6,16.4,70-2c-9.2-0.2-21.9-0.6-30-4c-8.1-3.4-20-1.8-26-8
			C667.9,330.1,666.7,333.7,664,335z"/>
	</g>
	<g>
		<path class="st0" d="M617,342c-1.3,2.5-2.8,4.2,0,6c2.3-0.2,4.8,0.5,7,1c1.5,0.4,3.8,1.8,5,2c4.2,0.8,9.1-0.1,13-1
			c1.5-0.4,2.5-0.4,4-1c3-1,7.5-3.1,7-7c-4.4,1.2-8.5-1-12-2c-1.9-0.6-4-0.7-6-1c-2.1-0.4-3.9-0.6-6-1c-1.3-0.3-5.1-0.2-6-1
			C619.9,338.3,618.7,338.7,617,342z"/>
	</g>
	<g>
		<path class="st0" d="M610,350c-0.5,0.5-1.5,1.5-2,2c-2.4,2.7-2.4,3.8-1,7c1.6-0.1,3.6,1.2,5,2c0.7,0.4,1.4,0.6,2,1
			c4.3,2.5,8.8,3.4,14,3c3.5-0.7,8-0.6,10-4c-3.3-0.5-5.9-2.7-9-4c1.4-1.1,0.9-1.4,1-2c-1.7-1.6-4.9-2.1-7-3c-2-0.9-4.1-1.9-6-3
			C614.3,347.9,612.2,347.9,610,350z"/>
	</g>
	<g>
		<path class="st0" d="M650,351c-1.5,0.7-3,1.7-5,2c0.2,0.2,0,1,0,1c3.6,1.4-0.9,2.3-3,2c-1,0.1-1.6,1.2-2,2c17,9.3,40.3,15.7,58,4
			c-12.9-4.6-28.8-6.7-41-14C655,348.1,651.8,350.2,650,351z"/>
	</g>
	<g>
		<path class="st0" d="M642,355c1-0.3,2.7,0.6,3-1c0,0,0.2-0.8,0-1c0,0-0.5-0.1-1,0C642.6,353.4,641.1,354,642,355z"/>
	</g>
	<g>
		<path class="st0" d="M589,365c1.4,0.5,2.9,2.2,4,3c7,5.1,13.3,7.2,22,5c0.9-0.2,7.8-2.2,8-3c-0.8-1.2-0.8-0.5-2-1
			c-2.5-0.9-4.7-2.7-7-4c-1.2-0.6-2.1-1.4-3-2c-1.3-0.9-4.2-1.6-5-3C600.1,359.1,595,360.2,589,365z"/>
	</g>
	<g>
		<path class="st0" d="M675,376c-8.5-3.9-17.6-4.1-25.8-9.2c-8.2-5.1-14.8,0-23.2,3.2C638.6,379.2,660.6,386.6,675,376z"/>
	</g>
	<g>
		<path class="st0" d="M604,381c0.8-1.2,2-1.8,3-3c-6.4,0.4-9.6-3.5-14-7c-1.4-1.1-6.8-3.5-6-6c-3.9,2.1-9.3,2.1-12,6
			C580.4,379.5,593.7,384.5,604,381z"/>
	</g>
	<g>
		<path class="st0" d="M563,374c0.5,1.5,0.1,2.6,1,4c4.6,2,18.7,12.4,23,9c-2.9-1.3-5.3-3.3-8-5c3.6-1.7-0.9-4.6-3-6
			c1.2,1.5,3,3,3,5c-1.8-0.9-6.9-5.7-3-6c-1.8-1.2-4,0-3-4C569.7,371.3,563.7,369.7,563,374z"/>
	</g>
	<g>
		<path class="st0" d="M615,376c-2.7,0.7-3.9,2.2-7,2c8.8,11,27.2,12.3,41,10c-6.2-4.9-15.8-8.5-23-14
			C623.1,373.5,617.8,375.3,615,376z"/>
	</g>
	<g>
		<path class="st2" d="M576,376c0,0,0-1,0-1c-3.9,0.3,1.2,5.1,3,6C579,379,577.2,377.5,576,376z"/>
	</g>
	<g>
		<path class="st0" d="M588,387c2.9,1.3,3.7,6.7,7,4c-1.7-0.3-4.3-1.9-4-4c1.5,1.5,4.2,1.8,5,4c8.5,2.2,18.7,4.9,27,3
			c-5.9-4.7-12-9.7-20-10c-6.2,0.4-12.1-0.4-18-1C585.8,384.4,587,385.7,588,387z"/>
	</g>
	<g>
		<path class="st3" d="M595,391c0,0,0.5-0.1,1,0c-0.8-2.2-3.5-2.5-5-4C590.7,389.1,593.3,390.7,595,391z"/>
	</g>
</g>
<g id="head">
	<g>
		<path class="st4" d="M528,93c0,0,1-1.9,1-2c0.5-1.8,4.5-2.6,8-2c-1.8-4.4-10.1-0.5-12,3C526.2,92.1,526.7,93.4,528,93z"/>
	</g>
	<g>
		<path class="st4" d="M479,93c-0.2,0.9,1.2,1.3,1,2c6.9-5.1,12.4-2.2,19,1c-0.3-1.4,0.7-2.1,2-2c0.4-2.6-2.8-3.5-4-5
			c-1.6,3.1-5.2,1.9-8,1C494.7,84.8,481.8,90.9,479,93z"/>
	</g>
	<g>
		<path class="st5" d="M537,90c-2.2,0.4-6.1,0.2-8,1c0,0.1-1,2-1,2c9-2.9,18.5-1.4,24,7c-2.8,2.1-8.3,0.3-11,3
			c8.4-0.2,15.4,0.5,17,11c1.6,10.5,16.9,1.5,24,4c0.7,5.9-1,12.2,0,18c0.1,0.4,0.8,3.8,1,4c-1.2,0.2,3.2,0.3,2,0
			c2.1-9.1-0.1-17.1,1-26c-8.8-0.2-16.8,2.1-25,4c-1.7-5.6-3.3-11.2-7-16c7.7-1.2,15.8,1.2,18,9c2.4-2.2,2.8-1.4,4,1
			c0.5-12.1-12.2-9.9-20-12S547,88.3,537,90z"/>
	</g>
	<g>
		<path class="st4" d="M471,100c-7.6-4.4-19.2,2.1-23,10c2.7,0.3,3.9-6.3,6-2C455.3,99.9,465.3,102.4,471,100z"/>
	</g>
	<g>
		<path class="st0" d="M488,106c-1.5-2.3-6.8-3.3-8,0C482.7,107.3,485.5,106.9,488,106z"/>
	</g>
	<g>
		<path class="st0" d="M519,122c-8,3.7-3.2-6.5-6-10c-2.3,3.5-2.8,8.6-6,12c8.3-5.4,3.1,8.5,6,12C514.7,130.5,512.8,124.5,519,122z"
			/>
	</g>
	<g>
		<path class="st0" d="M458,116c-6.5-0.6-12.6-2.1-19-3c-1.5,8.5,0.5,17.7,2,26c5.6-4.9-0.6-14.9,0-22
			C446.4,116.5,453.9,120.7,458,116z"/>
	</g>
	<g>
		<path class="st0" d="M542,121c2.9,1.6,2.5,5.1,3,8c0.7,6.1,3.4,11.6,3,18c3.3-1.6,3.2,4.5,6,2c-0.6,2.2-0.5,3.7,0,6
			c0.8-0.3,3.5,0.2,4,1c3.8-0.4,6.3-0.2,10,0c0.9,0.1,2.1,0.2,3,0c3.6-1.6,6.8-5.5,11-3c-2-3.5-6.1-5.8-10-6c7.4,9.9-12,5.3-17,6
			c1.3-2.1,2.7-3.9,4-6c0.2-0.4,0-1,0-1c-2.1-1.9-3.1,1.4-5,2c-2.5-2.8-2.3-6.6-3-10c4-2.4,6.4-9.1,4-13c-1.6,4.1-4.2,6.5-5,11
			c0.4,2.3-0.3,4.7,0,7c-2-1.4-0.6-4.8-1-7C548.6,133,546.6,117.3,542,121z"/>
	</g>
	<g>
		<path class="st0" d="M543,128c-1-2.1-0.7-4.7-2-7c-1.2,1.4-3.5-0.7-3,2C541.4,123.4,541.3,127.6,543,128z"/>
	</g>
	<g>
		<path class="st6" d="M481,123C476.1,124.4,479.5,129.1,481,123z"/>
	</g>
	<g>
		<path class="st1" d="M435,124c-12,2.1-16.5,15.2-13,26c-9.4,2.7-17.5,12.8-16,23c2.5,0.7,5.1,3.6,3,6c7.9-1.8-1.8-11,1.7-16.3
			c3.5-5.3,6.7-9,12.3-11.7c0.7,4.4,1.2,9.9,4,13c0.8-10.3-12.1-32.6,7-35C428.2,127.1,432.2,126.9,435,124 M410,172
			C405.2,170.6,408.5,165.9,410,172z"/>
	</g>
	<g>
		<path class="st5" d="M455,156c6.3,0.4,11.4-3.2,17-4c-0.4-1,0.7-2.2,1-3c1.1-3.1,0.8-6.9,2-10c-3.4-4.4-0.9-10.5-4-15
			c-3.8,3.9-1.5,12.1,3,15c-2.9,2.4-0.1,10.6-7,6c0,2.4,1.8,4.1,3,6c-7.2,2.3-14.8,3.8-22,0c2.4-3.2,8.1-4.7,9-9
			c-3.2,4.2-11.3,4.7-12,10C447.8,154.2,452.3,154.1,455,156z"/>
	</g>
	<g>
		<path class="st7" d="M528,126c0,0-0.2-0.8,0-1c-2.9,3.3-9.2,4.8-9,10C520.8,131.1,526.1,129.9,528,126z"/>
	</g>
	<g>
		<path class="st8" d="M448,128c-1.4,1.4-2.7,3.3-4,5C446.5,133.1,448.5,130.4,448,128z"/>
	</g>
	<g>
		<path class="st0" d="M465,138c-3.6-1-6.2-1.7-9-4c0.3,3.6,2.8,6.3,3,10C462.1,142.7,462.7,140.9,465,138z"/>
	</g>
	<g>
		<path class="st0" d="M491,134C481.2,133.8,492.4,143.6,491,134z"/>
	</g>
	<g>
		<path class="st0" d="M535,139c1.4-0.4,2.3-1.8,3-3c-0.9,0.2-2-1.9-3-1C533.7,136.4,534.3,137.6,535,139z"/>
	</g>
	<g>
		<path class="st0" d="M561,143c0.4-0.2,1,0,1,0c4.3,0,6-3.4,7-7c-2.9,0.9-5.8,1.2-9,1C562.7,140,559.2,139.9,561,143z"/>
	</g>
	<g>
		<path class="st7" d="M559,146c0,0,0.2,0.6,0,1c2,0.1,3.3-2.3,3-4c0,0-0.6-0.2-1,0C560.1,143.4,559.2,145,559,146z"/>
	</g>
	<g>
		<path class="st9" d="M427,150C430.6,144.7,422.3,146.5,427,150z"/>
	</g>
	<g>
		<path class="st0" d="M517,156C510,155.5,512.8,161.1,517,156z"/>
	</g>
	<g>
		<path class="st10" d="M557,159c3.4,1.1,8.6,0.2,12,1c3.4,0.8,10.5,0.3,7,3c13.8,3.1,3.1-3.9-5-5c-1-0.1-2,0.1-3,0
			c-2.8-0.2-7.8,0.1-10-1C555.2,157.7,557.4,157.3,557,159z"/>
	</g>
	<g>
		<path class="st11" d="M504,165c0.1-2.5-2.6-4.6-5-4C500.4,162.4,502.3,163.7,504,165z"/>
	</g>
	<g>
		<path class="st0" d="M550,161c-5.1,0.6-1.4,9.6-3.8,12.8c-2.3,3.1,5.5,10.9,7.8,10.2c-0.4-2.3-2.1-4.7-4-6
			C553.6,171.7,546.3,166.6,550,161z"/>
	</g>
	<g>
		<path class="st0" d="M510,182c3.1,2.3,2,1.6,5,0c-0.6-5.4,2.5-14.6-5-16C511,171,514.3,177.5,510,182z"/>
	</g>
	<g>
		<path class="st0" d="M525,166C519.6,167.4,524.2,172.2,525,166z"/>
	</g>
	<g>
		<path class="st10" d="M617,167c0,0-0.9,0.2-1,0c-1.1,7.8-4.7,10.3,2,15C617,177,617.5,172.2,617,167z"/>
	</g>
	<g>
		<path class="st0" d="M571,169C562.5,167.7,571.5,177.5,571,169z"/>
	</g>
	<g>
		<path class="st0" d="M454,170C453.5,178.1,462.1,169.4,454,170z"/>
	</g>
	<g>
		<path class="st0" d="M520,174C518.3,172.3,520.6,174.6,520,174z"/>
	</g>
	<g>
		<path class="st0" d="M491,182c-2.4-0.1-3.8,2.3-5,4C488.7,186.6,491.9,185.2,491,182z"/>
	</g>
	<g>
		<path class="st0" d="M592,193c-5.3,0.3-9.8-1.6-14-4c3.5,7.1-7.3,2-10,5C576.3,194,585.3,198.5,592,193z"/>
	</g>
	<g>
		<path class="st0" d="M456,194c0,0-0.9-0.7-1-1c-8.3-0.9-16.1-2.9-24,1c4.1,2,10.2-0.1,14,4C441.5,190.1,453.2,196.7,456,194z"/>
	</g>
	<g>
		<path class="st0" d="M510,196C518.8,195.9,508.9,186.7,510,196z"/>
	</g>
	<g>
		<path class="st0" d="M474,200c0,0,1,0,1,0c-0.2-1.7-0.1-1.4,0-3c0-0.2,0.1-2.9,0-3C472,193.4,471.4,199.3,474,200z"/>
	</g>
	<g>
		<path class="st0" d="M568,198c7,1.4,12.2,12.1,16,17c-5.3-4.6-10.7-12.5-17-17c-1.3-0.1-1.2,0.5-2,1c8.3,3.8,11.6,17.7,20,17
			c-2.8-7.7-11.3-19.1-19-23C566.9,194.5,566.6,196.3,568,198z"/>
	</g>
	<g>
		<path class="st10" d="M455,198c3.8,0.4-1.9,2.6-3,4c-0.5-1.8,1.8-2.5,2-4c-3.8,3.9-8.1,5.5-9.8,11.2c-1.6,5.8-8.7,3.7-12.2,3.8
			c2.4,1.6,4.8,3.7,8,3c-4.7,12.1,11.9,11.3,19,14c3,0.7,7.9,2.2,9-1c-4.2-2.4-11.1-0.2-14.2-4.8c-3.2-4.6-10.2-2-10.8-0.2
			c-5.1-9,8.9-18.3,15-25c0.6,0.3-1-3.6-1-3C456.1,196.6,455.8,197.2,455,198 M452,225C446.1,228.6,445.9,222.5,452,225z"/>
	</g>
	<g>
		<path class="st0" d="M501,196c-4.8,3.2-9.6,6-15,8c2.4,2.3,6.3-1,9-2c-0.6,4.5-3.1,8.4-3,13c6-3.6,15.8-2.1,15-13
			c-6-0.6-4,10.3-12,9C494.7,204.3,504,202.2,501,196z"/>
	</g>
	<g>
		<path class="st6" d="M455,198c0,0-0.6-0.2-1,0c-0.2,1.5-2.5,2.2-2,4C453.1,200.6,458.8,198.4,455,198z"/>
	</g>
	<g>
		<path class="st3" d="M568,198c0,0-0.5,0-1,0c6.3,4.5,11.7,12.4,17,17C580.2,210.1,575,199.4,568,198z"/>
	</g>
	<g>
		<path class="st0" d="M615,210c0,0,1-0.1,1,0c-0.7-1.8-5.7-1.6-5,1C612.3,210.8,613.8,210.5,615,210z"/>
	</g>
	<g>
		<path class="st0" d="M457,215C450.2,214.6,457.9,222.5,457,215z"/>
	</g>
	<g>
		<path class="st0" d="M573,215c-1.2-1.2-5.4,0.7-3.7,2.7C571.1,219.6,574.5,216.5,573,215z"/>
	</g>
	<g>
		<path class="st5" d="M585,226c0.2-3.1-0.5-6.7-2-9c1.7,10.4-13.3,8.8-20,11c6,5.5,13.2-1.8,19,0C578.6,225.7,582.6,225.9,585,226z
			"/>
	</g>
	<g>
		<path class="st0" d="M426,225c-1.7,1.4-1.1,4-3,1c0.2,2.4,0.7,5.3,2,7C425.7,230.4,426.4,227.9,426,225z"/>
	</g>
	<g>
		<path class="st0" d="M555,231C561.7,230.3,555.8,224.5,555,231z"/>
	</g>
	<g>
		<path class="st12" d="M462,233c-0.9-0.6-2.1-1.2-3-2c-6.3-2-10.9,2.4-17,3c0.8,5.3,7.8,4.8,12,5C445.4,234.4,457.2,233.8,462,233z
			"/>
	</g>
	<g>
		<path class="st10" d="M582,235c-7.7,1.5-17-8.8-25-2c6.4,0.9,7.6,1.9,15,1C572,239.4,581.5,241.2,582,235z"/>
	</g>
	<g>
		<path class="st12" d="M463,233c-0.2,4.6,4,0.7,6,3c-0.8,2.4-5.8,4.1-3,7c2.3-1.2,2.1-3.6,5-4c0-2,0-4,0-6
			C467.8,233.5,465.6,231,463,233z"/>
	</g>
	<g>
		<path class="st10" d="M552,237c1,5.5-1.7,9.7-1,15c0.2,4.1,0.2,11.5,6,11c-3.1-8.9-6.8-15.8-4-25c2.1,1.8,3.7,2.7,6,3
			C560.6,236,553.2,229.5,552,237z"/>
	</g>
	<g>
		<path class="st5" d="M549,252c0.4-5.6,0.1-9.9,2-15c-3.7,1.6-8.4,13.5-3,11c-3.7,1.7,1,9-4,6c3.2,4.1-2.8,8.5,0,12
			C547,262.1,548.6,257,549,252z"/>
	</g>
	<g>
		<path class="st1" d="M605,238c-5,4.7-0.9,18.6-13,19c0.5,3.5,3.9-0.5,5,2c-2.6-0.1-4.3,2.6-7,2C601.5,264.1,606.8,246.8,605,238z"
			/>
	</g>
	<g>
		<path class="st0" d="M570,253c0-4.7-4.6-7.7-5-11c-1.9,1.8-4.1,4.7-7,3C561.8,248.3,565.8,250.2,570,253z"/>
	</g>
	<g>
		<path class="st0" d="M464,245c-3.2,0.9-4.8-1.2-7-2c2.7,5.4-6.1,4.6-3,9C457.7,247.7,463.2,251.2,464,245z"/>
	</g>
	<g>
		<path class="st3" d="M441,246c1,2.7,0.8,6.7,1,9c0,0,2.6-1.5,3-2c-0.5-1.9,1.4-1.9,2-3c-3.1,1.7-5.3-7.5-7-6
			C440,244,441,245.9,441,246z"/>
	</g>
	<g>
		<path class="st0" d="M535,248C527.4,247.1,535.5,254.8,535,248z"/>
	</g>
	<g>
		<path class="st2" d="M507,250c-4,1.6-8.4,6-10,10C500.6,257.2,504.1,253.6,507,250z"/>
	</g>
	<g>
		<path class="st0" d="M487,255C495.5,255.5,485.6,246.5,487,255z"/>
	</g>
	<g>
		<path class="st0" d="M512,251c-2.9,4.3,1.5,11-3,14c5.3-3,1.4,5.8,4,8C516.7,265.6,514.8,258.8,512,251z"/>
	</g>
	<g>
		<path class="st7" d="M569,261c0.4-0.6,0.6-1.4,1-2c-2.6,1.5-4.6,4.5-7,6C565.8,265.6,567.7,263.1,569,261z"/>
	</g>
	<g>
		<path class="st7" d="M458,265c1.6,0.2,3.4-0.1,5,0c-0.4-2.3-3.5-1.8-4-4C457.5,261.9,454.4,264,458,265z"/>
	</g>
	<g>
		<path class="st4" d="M453,275c-9,6.5,12.3,19.2,18,10C463.7,287.3,451.8,285,453,275z"/>
	</g>
	<g>
		<path class="st0" d="M486,284c-2.6-1.4-6.9-4-10-2c3.3,2-0.8,1.9,0,5C478.8,284.6,482.2,283.4,486,284z"/>
	</g>
</g>
<g id="center_emblem">
	<g>
		<path class="st0" d="M526,77c-62.9-7.6-123.6,40.2-130.2,102.8c-6.6,62.6,39.1,120.7,102.5,127.9c63.4,7.2,123.5-39,129.9-102.5
			C634.6,141.7,588.5,84.6,526,77 M532,83c58.6,10.3,100.3,66,92,126c-8.3,60-66,100.5-125,94c-59-6.5-104.6-60-100-119
			S458.4,78.8,517,81C522.2,81.2,527,82.1,532,83z"/>
	</g>
	<g>
		<path class="st1" d="M502,94c-0.7,1-1.3,2.1-2,3c-8.7,11.5-19.8,15.9-33,20c1.6-5.6,3.1-11.5,7-16c2.4,2.9,6.4,3.9,9,1
			c-2.8-0.3-5.1-2.2-8-2c1.3-1.9,3-3.9,5-5c0.2-0.7-1.2-1.1-1-2c-4.2,3.6-9.3,7.6-10.7,13.3c-1.4,5.7-5.7,12.1-6.3,15.7
			c-8.9,2.1-13.4,11.9-20,20c-4-1.5-13-1.1-12,5c3.1-2,6.7-2.4,10-4c-3.7,8.6-7.5,17-10,26c-2.2-0.8-2.5-3.4-4-5
			c-0.2,12.3-19.5,17.1-23,30c6.9,11,24,15.9,24,30c0.7-3.4,2.9-6.6,1-10c4.3,8.6,5.1,20.4,13,28c-6.7,0.1-17.9-1.8-18-10
			c-4.5,3.9-9-3.3-12.1-7.9c-3-4.6-0.5-12.2,3.1-16.1c-1.8-0.5-2.9,1.5-4,2c-0.8,0.5-0.9,2.2-1,3c-1.9-0.5-4-2-1-3
			c-0.8-2.5-4.5,1-1.9,7.9c2.5,6.9,6.7,16.9,14.9,19.1c-2.4,10.8,2,23.7,13,28c3.4-6.7-3.4-7.4-7.8-10.2c-4.4-2.8-4-9.2-3.2-13.8
			c4.2,4.9,12.1,0.8,17,3c1.7-1.5,3.9,7.7,7,6c-0.6,1.1-2.5,1.1-2,3c4.1,3.7,6.6,11.2,13,12c-3.6-1-0.5-3.1,1-4c0.5,2.2,3.6,1.7,4,4
			c-0.9,5-17.6,0.3-21,3c1.1-4.6,0-8.2,0-13c-0.2-2.3,0-6.3-1-9c-4.5,7.1-0.3,17.9-3,26c7.8-2.2,16.8,0.1,24-4
			c7.5,7.8,11.6,31.1,26,30c1.2-2.5,5.1-1.4,7-3c0.2,2.9-4.1,1.9-6,3c2.6,2.7,8.9-0.2,9-4c-7.5,1.7-18.6,1.4-22.7-6.3
			C471.2,280,470,275,465,268c8.4,3.3,16.4,7.3,25,10c0,4.4-6.4,0.2-8,3c8.1-1.3,15.2,4.8,19.2,10.8c4,6,10,13.7,16,7.5
			c6-6.2,7.2-9.4,13-16c5.8-6.6,12.5,4.2,19.8,2.8c-3.1,9.9-15.7,7-23,9c8.8,10.2,17.1-3,24.8-7.2c7.6-4.2,25.6,1.8,26.2-12.8
			c-6.2,4.4-14.1,11.1-24,11c0.2-5.3,7.3-10.4,6-16c-1,0,0-1.4-1,0c-3,3.9-4.7,9.5-6,14c-6.3,0.7-11.3-3.3-17-5c-3.3,0-5.2,1.7-8,2
			c-2.2,1.5-1.8,3.2-4,3c-2.9-0.3-4.5-2.4-8-2c-3.9,0.4-8.3,4-12,4c4.5,6.8,13.7-4.3,20,0c-2.8,5.2-5.7,8.8-10,13
			c-8.9-4.8-13.9-13.4-20-21c7.1,1.4,14.4,2.5,22,2c6.7-0.5,13-2.6,20-2c2.5-2.3,7.6-3.2,10.7-4.3c3.1-1.1,6.9-5,10.3-4.7
			c1.6-1,2.9-3.4,5-4c2.5,1.5-2.2,3.1,0,4c8,2.1,16.5,2.8,25,3c0.4-9.9-0.4-19.4-1-29c5.8-0.6,13.1-3.4,17.8-6.2s7.9-8.1,11.9-11.1
			c4-3,3.1-17,1.3-15.7c1,1.4,1.2,3,1,5c-1.2-1.1-1.7-3.3-2-5c0-0.1-1,0-1,0c1.7,10.6-4,21.2-14,26c6.2-2.4-1.1-15.8-2-13
			c1.8,3,3.5,7.8,2,11c-0.7-2.9-1.8-7.3-3-11c-0.7-13.1,16.1-15.8,21.1-26.9c5-11.1-14.1-17.3-21.1-24.1c0.2-3,3.5-7.4,2-10
			c-2,1.9-3.1,3.4-4,6c-0.1,3.4,0,5.4,2,8c3,1,3.5,4.7,6,6c-3.6,5.9-7.4,17.8,1,21c-3.1-6.6-1.3-15.2,3-21c3.8,2.4,6.2,6.7,10,9
			c-6,9.9-15.8,19.2-25,26c6.7-12.3,3.3-27.4,3-41c-0.2-2.6-1.5-5.1-1-8c-6.1-5.1-4.4-17.7-11-23c5.2-2.1,10.9,1.7,16,3
			c0.1,4.5-4.5,9.3-3,14c0.9-0.6,1.8-1.1,3-1c2.7-1.8,1.9-5.4-1-2c-0.2-3.4,3-5.6,3-9c6.6,3.4,11.5,10.3,14,17c0.1,0.2,1,0,1,0
			c-0.6-7.7-6.5-15.6-14-18c3.2-10.4-1.1-24.1-13-26c4.7-0.6,4-1.6-1-3c-3,7.7,11.2,5.5,1,8c9.6-0.7,14.2,10,11,18
			c-4.2-3.3-9.8-1.4-14-4c-3.6-0.4-3.4,0.8-6-1c-3.8-2.6-6.3-7.4-9-11c-1.9-0.8-4-3-4-5c1.6,1,4.4,1.4,4,4c5.1,2.1,5.8,8.4,10,11
			c0.4-1.5-1.4-2.4-1-4c-11.1-15-30.6-20.6-48-28c2.8-2.1,8.2-0.7,11-3c-3.8,0.2-7.9-2.7-11,1c-5.5-7.5-8.1-10.1-14.2-17.8
			C512.6,80.6,506.3,88,502,94 M523,98c0.8,1.1,1.3,1.9,2,3c1.7,2.6,4.7,4.9,6,8c-3.9,0.3-7.1-1.9-11-2c-4.5-0.4-9.5-0.2-14,0
			c-4.9,0.3-9.1,1.6-14,2c3.2-2.8,7.7-5,10-9c2,0.8,3,3.3,5,4c3.1-3.6,12.9-0.6,17-2c-0.3-1.2-1.8-1.7-2-3c-6.4,0.9-12.5,1.7-18,0
			c1.4-6.2,7-12.9,14-10C518.7,92.6,521.7,94.7,523,98 M528,126c-1.9,3.9-7.2,5.1-9,9c-0.2-5.2,6.1-6.7,9-10c3.7-3.3,8.7-6.9,7-13
			c27.5,8.2,52.5,32.1,57,61c-3.1-2.5-10.9-1.1-7-7c-5.2,1.5-4.9,9.4-10.8,12.2c-5.8,2.9-6.8,8.5-9.2,12.8
			c10.9-2.3,8.4-10.1,16.8-16.2c8.4-6.2,15.3,9,12.2,17.2s4,23.1-8,23c8.5,6.1-1.5,17.8-5.3,25.7c-3.8,7.9-11.2,15-18.5,20.5
			c-7.3,5.6-17.4,10.1-26.2,12.8c-0.8-3.5,0.3-9.7,4-5c1.3-1.7,1.8-4.6,2-7c-2.1,3.4-4.5,4.2-9,1c-6.2-2.4-12.2-5.9-16-12
			c5.7,2.7,9.8,9.5,16,11c1.8-2.4-5.8-4.3-7.7-7.3c-1.9-3-6.6-7.7-11.3-5.7c2.1,12.8,23,11.9,20,26c-12.6,1.6-26.2,3.3-39,1
			c1-4.1,1.2-8.5,1-13c6.6-1.7,10.3-8.9,14-14c-8.6-2-14.2,15.1-25,16c1.8,4.5,5.2-1.1,8-1c4.5,16.4-13.2,8.4-21.1,4.1
			c-7.9-4.4-15.4-10.1-21.7-17.3c-6.3-7.2-10-15.7-14.5-24.4c-4.5-8.8-7.1-22.1-6.7-32.3s0.5-26.4,14-21c-7,1.1-0.2,5,2.2,8.8
			c2.5,3.8,7.6,6.2,9.8,10.2c1-0.1,2,0.1,3,0c-2.3-4.5-9.1-7.6-11-13c-1.8-1.1-4.1-2.7-4-5c2.3,1.6,4.6,3.7,6,6
			c2.4,2.8,8.7,10.1,10,7c-8.7-4.4-13.6-20.3-26-17c6.4-28,30-55.4,60-58c-2,3-0.8,6.9,0,10c2.9,1.6,10.2,6.4,11,10
			c1.3,0.5,2.2,1.6,2,3c-1.3,0.3-2.7-0.8-3-2c-2.8-2-8.2-7.4-10-10c-5.1-1.6-8-3.8-12-4c-4,4.9-5.1,11.4-5,18c0.1,3.6,1.4,8.1-2,12
			c1.8,1.6,2-0.3,3-2c-0.8-8.1,8.4-16.7,8-25c10,1,13.7,13.3,22,17c-9.6,2.6-20.9,3.9-29,11c-1.5,1.2-3.8,4.1-5,3
			c-0.6,1.5-2.7,3.1-3,5c-4.6-0.3-8.5,1.2-14,0c-5.6,0.1-11,1.8-16,4c-0.2,3.8,3.7,1.3,4,5c2.6-3.2,8.2-0.8,10-5
			c-3.2-0.4-7.2,3-10,1c7.5-3.1,16.3-1.4,24-4c-3.2,8.8-7,17.5-8,27c-0.3,3.9,0,8,0,12c0,12.2,5.6,20.1,9,31c0.8,2.9,1.5,2.2,4,3
			c-1.4,2.5,0,4.7-1,7c-0.3,7.6-2.1,16.7,0,22c-0.8-4.7,2.7-9.2,3-14c1,5.8,3.4,11.1,4,17c2-9.3,1.4-2.1,4,3c2.2-5-1-11.6-4.2-15.8
			S477,239.6,474,235c32,25.3,91.2,9.9,90-36c0.1-2-0.1-4,0-6c0.3-11.7-2.8-22.4-8-33c-0.5-1.1-1.5-2.6-2-4
			c-7.3-3.1-10.5-10-18.7-12.3c-8.2-2.3-18.3-4.4-27.3-4.7c4.9-2.7,1.5-1.8-2-3c5.1-1.5-1-8.1-6.8-11.2s-7.4-13.6,2.4-14.1
			c9.8-0.4,14.3-0.5,24.5,0.1c10.3,0.6,6.3,6.8,0.5,12c-5.8,5.2-8,9.1-11.8,15.2c7.6-3.1,17.1-9.7,21-17
			C533.3,122.7,531.2,125.5,528,126 M481,123C479.5,129.1,476.1,124.4,481,123 M480,135c-3.2-2.9,1.6-6.6,1-10
			C483.8,127.8,479.4,131.6,480,135 M509,144c-4.1,3.1-10.1,5.5-12,11c-6.4-3.8-13.9,3.9-20,0C486.1,148.3,498.3,143.1,509,144
			 M518,181c-0.7,2.4-1.2,4,1,6c-5.2-2.5-13.4-1.9-15,5c-1.8,0.1-3.1-1.5-5-1c-4.5-0.1-12,1.3-15.7-1.3c-3.7-2.6-4.4-8.1-8.3-9.7
			c0,1.6,1.4,3.6,1,5c2.8,0.9,5.6,6.8,7,9c7.4-0.7,14.3,2.5,21-1c-1.1,6.9,6.9,12.5,13,9c1.8-1.2,2.7-2.6,4-4c1.2,4.7,7.4,7,8,12
			c-3.8-0.2-8.6-3.3-9-8c-0.9,0.6-1.8,1.1-3,1c-0.3,3.5,1.5,6,3,9c1.2-6.9,10.7,4.3,16,4c0,6.5-5.7,7.8-11,7c-1.2,2.1-0.2,5.5-2,7
			c-2.9,0-6.6-1.5-9,0c2.1,2.6,5.5,1.4,8,3c-1,4.4-10.3,4.6-8,9c0.7-0.8,2.1-1.5,3-2c4.4-2.4,8.2-4.7,10-10c4.5,5.9,13.1-1.7,19,1
			c-6.1,8.5-18.7,11.1-29,12c-1,0-2,0-3,0c-7.4,0-13.7-1.8-15-10c12.2,0.2,19.6-10,26-19c-4.5-1.7-5.7,7.6-12,6
			c2.2-4.9,0.5-10.7,1-16c-5.9,2.6-3.7,17.1,1,20c-4.1,3.1-8.8,4.9-14,5c-0.1-3.6-3.6-6.8-7-5c-0.8-4.6-1.8-5-6-3
			c1.9-2.4,1.3-7.9-2-4c2.3-3.9-3.7-11.6-7-6c-2.3-3.3-4.7-6.7-4-11c0,0-1,0-1,0c-1.4,4-15.4-9.4-10-16s0.9-17.8,9-23
			c4.1,6.4,1.4,20.1-6,20c3.3,2.2,5.7,5.9,5,10c1.3,1.4,3.5-0.7,4,2c1.6,0.1,0.7,3.1,1,4c0.8,2.7,3.9,6.5,7,6
			c-3.4-5.4-5.2-11.7-9-17c-1.2-2.4-2.8-4.5,0-7c1.5-5.5,11.4-4.5,15-6c-0.8-4.5-0.8-8.1-1-13c3.8-1.3,4.4,3.2,8,3
			c-0.7,3.6,1.2,6.5,1,10c-11-3.7-2.9,12.7,1,16c5.8-0.1,3,0.7,4-4c-4.2,0.1-8-6.4-8-10c6-1.1,8.3,4.6,10,9c2.8-0.1,2.4,2.1,4-1
			c-1.1-2.7-1.7-6-2-9c-2.5,2.1-5.2-1-8-1c3.7-3.1-1.3-9.7-3-13c2.6-1.9,5.7-2.3,9-2c-5.6,4.1,3.8,6,7,7c-2.6-3.1-7.9-6.3-1-9
			c-4.8-0.4-7.8-0.7-12,1c1.6-6.2,9.5-8,13-13c3.4,3.8,14.6,8.4,6,12c3.9,0.5,8.4,0.5,5,5c8.5-1.1,16.1,8.1,13,17
			c2.9-1.5,5.7-2.9,9-3c-0.5-3.7-6.7-0.5-7-5c7.7,0.2,5.4-5.4-0.1-6.9c-5.5-1.6-9.5-3.8-10.9-9.1c7.2,1.9,14.7,5.8,22,4
			c7.3,11,17.5,29.6,7,42c-2.9,0.2-1.9-5.6-6-4c4-4-2.8-8,0-13c-4.2-1.1-0.7,4.8-6,3c-1-7.1-9.9-2-15-2c1.1-4.6,4.1-8.5,5-13
			C527.7,171.9,519.9,173.9,518,181 M549,156c-10.7-0.4-24.1-3-33-11C527.5,141.9,540.1,149.3,549,156 M497,156
			c-0.9,5.3-6,0.4-8.1,2.9c-2.1,2.6-1.7,8.6-1.9,12.1c-3.8-2.4-6.9,1-10,3c1.1-6.1-0.1-10.4-2-16C482.8,159.1,489.4,155.6,497,156
			 M429,172c-2.1,13-4.9,26.9-1,40c-3.9-1.1-6.5-5.1-10-7c7.6-7.5,6.6-17.5,0-25C421.8,177.4,424.7,173.2,429,172 M542,186
			c3.3,1.6,3.8,3.5,6.2,6.8c2.5,3.3-2.7,3.5-2.2,6.2c3.8-2,7.8,0.9,6,5c-2.7-4.4-4.1,3.3-7.7,4.3c-3.6,1-7.3,1.6-7.3,6.7
			c-4-2.1-7.1-7.7-9-12c3.7,1.4,6.4,0.5,10,2c-1.3-4-7.6-3.7-11-6c0.1-1.3,2.1-0.6,2-2c-2.3,1.5-10.3,0.4-8-4c2.6,1.8,6,0.7,9,1
			c5.9,0.5,18.7,5.8,9,11c3.1,0.8,5.7-1.5,7-4c-2.8-4.2-4.9-8.7-10-10c-5.1-1.1-11.2,0.2-16,1c-0.2-6.5,0.6-16.7,10-18
			c-0.6,5.8-5.8,9.2-8,14C528.6,188,535.7,182.5,542,186 M416,183c4.9,5.2,5.3,13.3,1,19c-4.3-0.8-6.2-6.1-10-8
			C408.9,189.9,412.2,185.8,416,183 M515,189c5.6,2.3,2.5,13-4.1,10.1C504.4,196.1,507.5,186,515,189 M551,225
			c-4.4-4.6,0.4-11.8-3-16c5.1-2.4,9.1-7.4,12-12C560.8,205.9,557.4,217.8,551,225 M474,224c-0.4,0.9,0.3,2.1,0,3
			c-1.9,0.5-2.2-1.8-3-3c-5.4-7.2-6.5-17.2-7-26c3.7,3.6,10.2,6.9,9,13C479.3,206.9,474.4,220.3,474,224 M547,211
			c0,5.9-0.6,11.9,2,17c-6.6,0.2-12.6,2.6-19,1c4.2-4.8,14.9-10.2,10-16C542.5,213,544.3,210.4,547,211 M483,212c0.3,2.5,1,4-1,6
			c3.1,5.5,10.6,7,13,13c-5.7-4-12.5-0.6-19-1C476.1,223.7,475.5,213.6,483,212 M597,218c-1.7,4.9-0.2,12.2,3,16
			c-3.1,6.8-11.4,4.2-16,9C588.8,235.1,589.4,223.1,597,218 M500,231C494.6,231.4,499.1,225.2,500,231 M501,242
			c-8-0.8-15.5-4.2-22-9C486.6,227.3,498.6,233,501,242 M575,255c-1.3,2.6-4.1,4.1-6,6c-1.3,2.1-3.2,4.6-6,4c2.4-1.5,4.4-4.5,7-6
			c1.3-2.2,3.3-3.4,5-5c1.7-3.4,5.8-5.4,7-9c2,7.3,0.5,16.3,2,24c-6-1.9-13.4-0.9-19-3C568.2,263.9,579.1,257.9,575,255 M507,250
			c-2.9,3.6-6.4,7.2-10,10C498.6,256,503,251.6,507,250 M455,262c-3.3-2.6-6.4-6.2-8-10C450.2,254.7,454.4,257.6,455,262 M432,261
			c-2.4-0.2-5-1.7-6-4C428.2,257.5,430.8,259,432,261 M535,296C530.7,298.5,529.2,293.1,535,296z"/>
	</g>
	<g>
		<path class="st0" d="M510,366c2.1,0.2,4.9,0.3,7,0c27-4.2,18.7-46.5-8-43C482.3,326.5,483.8,364,510,366z"/>
	</g>
	<g>
		<path class="st0" d="M517,368c-2.8,0.1-4.9,0.2-8,0c-2.7,0-5.3,0-8,0c5.2,35.2,5.9,71.8,4,108c5.2,0.2,9.8,2.8,15,3
			c1.6-37-1.2-75.2,5-111C522.3,368.1,519.7,367.9,517,368z"/>
	</g>
	<g>
		<path class="st0" d="M548,376c4.4,1,8.1,3,13,2c-1.9-0.8-0.6-3.4-1-5c-2.4-0.6-5.8,0-8-1C552,371.5,548.1,375.9,548,376z"/>
	</g>
	<g>
		<path class="st0" d="M480,373c-3.2,1.6-7.1,2.5-10,4C472.8,379.5,482.7,378.5,480,373z"/>
	</g>
</g>
<g id="body_left">
	<g>
		<path class="st0" d="M504.2,776.2c1,12.2-17.2,24.8-26.4,17c-9.3-7.8-11.2-21-17.1-30.9c-5.9-10-10-21.2-15.5-31.5
			c-5.5-10.4-9.5-21.6-15-32c-5.5-10.4-10.1-21.9-15.5-32.5c-5.5-10.5-9.6-21.4-15-32c-5.4-10.6-10.6-21.7-15.6-32.4
			c-5-10.7-10.3-20.9-15.4-31.6c-5.1-10.7-10.2-21.8-15.5-32.5c-5.2-10.7-9.8-21.2-15.1-31.9c-5.4-10.7-10.5-21.4-16.1-31.9
			c-2.1,28.4-0.6,58.9-1,88s0.3,60.1,0,89s0.3,60.7,0.3,88.7S344,781.3,369,782v9c-40.6-0.7-81.9,1.3-122-1c1.2-2.4-0.3-4.3,0-7
			c27.1-2.3,46.5-18.7,45.9-48.1c-0.6-29.4,0.2-63.8,0.1-93.9s-0.4-64,0-94s-1.2-65,0-94s-11.1-53.6-42-53c0.3-3.3-0.8-7.1,1-10
			h91.4c7.7,0,14.7,4.4,18,11.3c29.4,61,117,242.2,119.6,247.5c2.2,4.5,4,9.1,4.9,14.2c2.1,12.2,5.3,24.5,15.3,32.7
			c10,8.2-3,25.6,3.7,37.3C511.6,744.8,503.3,764.1,504.2,776.2z"/>
	</g>
</g>
<g id="body_right">
	<g>
		<path class="st0" d="M733,451c1.6,28.7-0.5,63.4,0,93s0.2,63.4,0,93s1.2,64.4,0,93s11.4,51.2,41,52v9H618v-9
			c28.6,1.8,45.5-16.9,45-45s2.1-59.9,1-89s0.9-60.7,0-90c-0.9-29.3,2.3-60-2-88c-4.6,8.1-8.2,16.6-11.9,25.1s-7.4,17.2-11.4,25.6
			c-4,8.4-7.5,17-11.6,25.4c-4.1,8.4-7.2,17.2-11.4,25.6c-4.2,8.4-7.8,16.9-11.6,25.4c-3.8,8.5-8.1,16.7-11.9,25.1
			c-3.8,8.5-7.4,17.2-11.5,25.5c-4.1,8.3-7.7,17.1-11.6,25.4c-3.9,8.2-8,17.1-11.9,25.1c-3.8,8-8.8,18.3-12.1,25.9
			c-3.4,7.5-9.9,18.1-12.4,24.6c-2.5,6.5-11.7,24.9-13.7,15.3c-2-9.6-1.3-24.6,3.8-33.2c5-8.6,6.2-19.5,6-29
			c-0.1-3.9,1.1-7.6,2.8-11.3c2-4.5,100.3-220.2,131.6-288.8c3.3-7.1,10.4-11.7,18.2-11.7c31.4,0,90.7,0,92.6,0v9
			C743.8,398.8,731.4,422.3,733,451z"/>
	</g>
</g>
<g id="stethoscope">
	<g>
		<path class="st0" d="M522,571c9.5,12.3,21.2,3.6,28.7-6.3c7.4-9.9,12.8-23.9,11.3-35.7s-6.5-25.4-17.8-31.2
			C533,492,523.4,485.2,511,482c-12.4-3.2-25.9-6-37.9-11.1c-12-5.1-19.9-10.4-30.8-18.2c-10.9-7.8-7.4-29.2,4.7-29.7
			c12.1-0.6,32.9,9.9,36-7c3.1-16.9-20.7-16-30.9-11.9c-10.2,4-24.2,7.7-28.3,20.7c-4.1,13-2.9,26.8,7,36.5s16.3,15.6,28.2,20.8
			c11.9,5.2,22.3,10.2,34.4,14.6c12.1,4.4,21.2,10.6,33.5,15.5c12.3,4.9,20.3,17.5,16.2,30.7C538.8,556.1,531.7,561.7,522,571
			 M449,416c-1.5-3.8,6.7-7.6,7.9-2.9S451.8,418.5,449,416 M470,411c4.7,1.2,2.3,8.6-2.7,6.7C462.3,415.7,464.6,409.7,470,411z"/>
	</g>
	<g>
		<path class="st0" d="M528,483c8.5,6.2,18.6,9.2,27.8,3.8c9.1-5.5,17.7-7.1,26-13c8.3-5.9,15-11.4,19.5-20.5
			c4.5-9.1,5.8-22.3,0-31.5c-5.8-9.1-13.4-13.4-23.6-16.4c-10.2-3.1-19.6-6.6-30,0.4c-10.4,7-2.3,19.4,8.3,20.3s24.9-6.6,32.2,2.8
			c7.3,9.4-2.3,21.1-9,27.5c-6.6,6.4-16.2,10.6-24.5,14.5C546.3,474.5,535.2,477.2,528,483 M552,415c-1.6-4.5,7.6-7.7,8.9-2.9
			C562.2,416.9,554.7,417.5,552,415 M575,411c3.2,2.1-1.9,8.5-6.2,5.2C564.5,413,571.3,408.5,575,411z"/>
	</g>
	<g>
		<path class="st0" d="M501,505c-10.5-6.8-21.3-8.5-29.2,1.8c-8,10.3-10.8,23.2-7.7,35.2c3.1,11.9,10.6,18.4,19.2,25.8
			c8.6,7.4,18.5,11.4,27,18c8.6,6.5,20.1,11.6,21.7,23.3s-9.9,21.1-15,30c2.4,1,4.7,2.6,6,5c17.3-8.3,29.8-39.2,14.8-54.8
			c-15-15.5-29.7-21.1-47-35C473.5,540.4,481.3,514.8,501,505z"/>
	</g>
	<g>
		<path class="st0" d="M519,516c-4.5-1.1-7.4-5.7-12-7c3,4,3.3,4.6-2,5c6,17.3-9.7,47.5,14,54C519,550.7,519,533.3,519,516z"/>
	</g>
	<g>
		<path class="st0" d="M508,588c-11.1-12.2-22.9-0.3-27,12c-4.1,12.3-0.2,26.9,10.3,35.8c10.4,8.9,17.5,12.6,28,23
			c10.5,10.4-10,24.6,1.8,32.2c8.8-11.1,14.9-29.7,4.2-41.2s-20.4-14.4-30.3-26.7C485,610.8,497.5,595.8,508,588z"/>
	</g>
	<g>
		<path class="st0" d="M516,635c0.2-7.3-0.1-17.1,0-25s3.7-16.3-6-19c-4.2,6.8-1.4,16.6-1,24S507.7,631.9,516,635z"/>
	</g>
	<g>
		<path class="st0" d="M518,730c7.9-6.7,9.2-21.7,4.3-31.3c-4.9-9.7-13.5-11.2-19.4-20.6c-5.9-9.4,13.1-22.4,1.1-27.1
			c-7.1,7-13.3,18.3-7.9,27.9c5.4,9.6,11.4,12.9,19.7,20.3C524,706.7,512.4,721.3,518,730z"/>
	</g>
	<g>
		<path class="st0" d="M514,682c-1.1-7.8,2.3-17.5-2-24C508.9,663,507.2,678.3,514,682z"/>
	</g>
	<g>
		<path class="st0" d="M511,700c-2.4,35.2-0.3,73.7-1,109c6.9-4.2,3.6-16.4,5-25s-0.2-20,0-29s0.8-21.1-0.1-29.9
			C514.1,716.2,515.6,707.5,511,700z"/>
	</g>
</g>

</svg>
